<svg width="32" height="32" viewBox="0 0 32 32" fill="none" xmlns="http://www.w3.org/2000/svg">
<path fill-rule="evenodd" clip-rule="evenodd" d="M12.5049 3.06893C7.90997 4.18033 3.99089 8.14678 2.89462 12.7955C2.10592 16.1398 2.51001 19.5566 4.01212 22.2431C4.66185 23.4051 4.66505 23.4483 4.14294 24.0931C3.34028 25.0836 3.4618 26.3304 4.45778 27.3262C5.45404 28.3216 6.70148 28.4431 7.69252 27.6409C8.3376 27.119 8.38092 27.1222 9.54347 27.7716C11.1034 28.643 13.8288 29.3389 15.6609 29.3334C24.4337 29.3078 30.9264 21.0111 28.7397 12.6206C28.4917 11.6693 27.9894 10.3551 27.6237 9.70071C26.9739 8.53875 26.9707 8.49546 27.4928 7.8507C28.2955 6.86018 28.174 5.61338 27.178 4.61762C26.1817 3.62216 24.9343 3.5007 23.9433 4.30294C23.2982 4.82479 23.2549 4.8216 22.0923 4.17219C19.4215 2.68045 15.8237 2.2664 12.5049 3.06893ZM18.882 4.21636C27.9426 6.56003 31.0351 17.9393 24.4107 24.5603C17.4153 31.5524 5.49823 27.6897 3.81792 17.8858C2.34925 9.31513 10.3889 2.01971 18.882 4.21636ZM26.4082 5.38703C26.9661 5.94462 26.9986 6.78231 26.4794 7.21292C25.9221 7.67549 24.0863 5.79004 24.5971 5.27952C25.0802 4.79661 25.864 4.8431 26.4082 5.38703ZM11.6555 6.87732C11.3866 7.389 11.1665 8.0817 11.1665 8.4173C11.1665 9.24598 11.9706 10.7438 12.4096 10.7325C13.3172 10.709 14.655 8.95484 14.655 7.78881C14.655 6.81078 14.2103 6.48855 13.8097 7.17631C13.5265 7.66271 13.5093 7.663 13.5009 7.18241C13.4907 6.59373 13.0468 6.50918 12.7224 7.03422C12.5718 7.27771 12.4421 7.16033 12.3221 6.67102L12.1445 5.94752L11.6555 6.87732ZM16.9807 7.83617C16.6609 8.15579 16.3993 8.6788 16.3993 8.99842C16.3993 9.78933 17.4104 10.7418 18.2497 10.7418C19.1355 10.7418 20.4693 9.69402 20.4693 8.99842C20.4693 8.30281 19.1355 7.25505 18.2497 7.25505C17.8715 7.25505 17.3005 7.51656 16.9807 7.83617ZM18.9954 8.82873C19.2689 9.15823 19.2122 9.27968 18.711 9.43862C18.0162 9.65916 17.388 9.22448 17.6918 8.73314C17.9639 8.29323 18.5889 8.33914 18.9954 8.82873ZM7.97596 10.1534C5.98343 12.1449 7.912 15.0561 10.4293 13.856C11.6616 13.2688 11.9729 12.31 11.3325 11.0722C10.5374 9.53567 9.01205 9.11784 7.97596 10.1534ZM10.0534 11.2227C10.7395 11.843 10.7284 12.3881 10.0229 12.7656C9.16991 13.2217 8.60884 13.1282 8.40825 12.4962C8.20213 11.8474 8.69576 10.7418 9.19142 10.7418C9.37311 10.7418 9.76092 10.9583 10.0534 11.2227ZM13.6245 11.4551C13.0349 12.0441 12.602 13.6474 13.0323 13.6474C13.0992 13.6474 13.3294 13.7148 13.5442 13.797C13.8219 13.9037 13.9335 13.6733 13.9315 12.998C13.9286 12.1815 14.0294 12.0482 14.655 12.04C15.0548 12.0351 15.683 11.9261 16.0513 11.7977C16.5886 11.6106 16.6531 11.4833 16.379 11.1532C15.8377 10.5012 14.4239 10.6561 13.6245 11.4551ZM20.2992 11.7358C19.1994 12.2144 18.1436 13.5039 18.1436 14.368C18.1436 15.1554 18.9948 15.9719 19.8157 15.9719C21.2501 15.9719 23.2121 13.1189 22.6981 11.7805C22.4853 11.2264 21.5117 11.2084 20.2992 11.7358ZM15.8295 12.3259C15.6368 12.5581 15.5586 12.9983 15.656 13.3045C15.8987 14.0687 16.8767 14.9082 17.2531 14.6757C17.5895 14.468 17.668 13.0991 17.3857 12.3637C17.1647 11.7881 16.2935 11.7672 15.8295 12.3259ZM21.3414 13.4699C21.3414 14.1844 20.3068 15.2115 19.7878 15.0125C19.1541 14.7696 19.1709 13.7552 19.8152 13.3801C20.548 12.9535 21.3414 13.0003 21.3414 13.4699ZM22.9272 14.3607C22.0182 15.269 22.0187 16.2689 22.929 17.1234C23.506 17.6653 23.8496 17.7618 24.7093 17.6223C25.9544 17.4204 26.8649 16.6948 26.8649 15.9045C26.8649 15.0805 25.302 13.6474 24.4029 13.6474C23.9813 13.6474 23.322 13.9659 22.9272 14.3607ZM5.95494 15.5753C5.12874 16.6248 5.18862 17.7629 6.11861 18.6927C7.03231 19.606 8.0434 19.6745 8.84082 18.8775C9.55277 18.1659 9.58417 17.208 8.92687 16.2546C7.80676 14.6301 6.86748 14.4154 5.95494 15.5753ZM25.2453 15.2661C25.8242 15.8449 25.8233 16.1538 25.2421 16.3767C23.9278 16.8808 22.9159 16.1503 23.6703 15.2417C24.1325 14.685 24.6721 14.6934 25.2453 15.2661ZM7.84863 16.696C8.36551 17.4849 8.228 18.2964 7.57739 18.2964C6.90934 18.2964 6.43461 17.4944 6.63346 16.7021C6.86573 15.7775 7.24511 15.7755 7.84863 16.696ZM12.3294 16.4077C12.6273 16.7666 12.6023 16.8436 12.1884 16.8436C11.8456 16.8436 11.743 16.9924 11.8654 17.3117C11.9942 17.6467 11.9203 17.7321 11.6058 17.6115C10.9537 17.3614 11.0732 17.817 11.8517 18.5477C12.6169 19.2663 14.2919 19.6254 14.9196 19.2056C15.8327 18.5942 13.907 15.9719 12.5454 15.9719C12.0645 15.9719 12.0282 16.0451 12.3294 16.4077ZM17.0793 18.8586C15.9089 19.572 15.5487 20.5773 16.274 21.1073C16.9924 21.6323 17.3819 21.5919 17.9808 20.9306C18.5389 20.3143 18.752 18.5643 18.2889 18.4013C18.129 18.3449 17.5848 18.5506 17.0793 18.8586ZM22.2135 19.4586C21.8228 19.8492 21.6321 20.4271 21.6321 21.2212C21.6321 23.5884 22.7449 24.2024 24.2709 22.6772C25.286 21.6626 25.3861 20.4341 24.5279 19.5136C23.79 18.7218 22.9702 18.7023 22.2135 19.4586ZM17.8529 19.4586C17.8529 19.6185 17.722 19.7492 17.5622 19.7492C17.4023 19.7492 17.2714 19.6185 17.2714 19.4586C17.2714 19.2988 17.4023 19.1681 17.5622 19.1681C17.722 19.1681 17.8529 19.2988 17.8529 19.4586ZM23.9005 20.8254C23.9491 21.1526 23.7528 21.6573 23.4645 21.9473C22.9586 22.4561 22.9371 22.4462 22.8458 21.6684C22.7941 21.225 22.8269 20.6665 22.9188 20.4268C23.147 19.8326 23.7924 20.0947 23.9005 20.8254ZM15.2365 21.7828C15.2365 22.9741 16.779 24.6888 17.8508 24.6888C18.9477 24.6888 20.0469 23.779 19.7826 23.0901C19.5928 22.5958 19.5442 22.6022 18.9959 23.1903C18.6747 23.5349 18.3122 23.8171 18.1904 23.8171C17.7982 23.8171 17.2714 23.134 17.2714 22.6255C17.2714 22.3535 16.8136 21.861 16.254 21.5312L15.2365 20.9309V21.7828ZM10.4563 21.8479C9.80802 22.7725 9.89756 23.9069 10.6764 24.6382C11.4979 25.4093 12.3698 25.4468 13.0111 24.7384C13.6957 23.9824 13.6076 23.1273 12.7395 22.0961C11.8506 21.0399 11.081 20.9562 10.4563 21.8479ZM12.3294 23.7273C12.3294 24.3282 11.5162 24.1698 11.3127 23.5291C11.0339 22.6516 11.4616 22.1609 11.9378 22.8117C12.1532 23.1061 12.3294 23.5181 12.3294 23.7273ZM6.97853 26.6747C5.93982 27.7129 4.13392 25.9512 5.07495 24.8178C5.39852 24.4281 5.56451 24.4897 6.41833 25.3169C7.26139 26.1337 7.33698 26.3165 6.97853 26.6747Z" fill="url(#paint0_linear_286_7044)"/>
<path d="M29 16C29 23.4731 23.1627 29.5 16 29.5C8.8139 29.5 2.5 23.4495 2.5 16C2.5 8.55051 8.8139 2.5 16 2.5C23.1627 2.5 29 8.52686 29 16Z" stroke="url(#paint1_linear_286_7044)"/>
<defs>
<linearGradient id="paint0_linear_286_7044" x1="2.5" y1="62.8688" x2="-9.24464" y2="5.87573" gradientUnits="userSpaceOnUse">
<stop offset="0.46275" stop-color="#C41973" stop-opacity="0.94"/>
<stop offset="0.847085" stop-color="#F15754"/>
<stop offset="0.989499" stop-color="#FF5A27"/>
</linearGradient>
<linearGradient id="paint1_linear_286_7044" x1="2" y1="65.2121" x2="-10.5373" y2="5.45875" gradientUnits="userSpaceOnUse">
<stop offset="0.46275" stop-color="#C41973" stop-opacity="0.94"/>
<stop offset="0.847085" stop-color="#F15754"/>
<stop offset="0.989499" stop-color="#FF5A27"/>
</linearGradient>
</defs>
</svg>
