<svg width="32" height="32" viewBox="0 0 32 32" fill="none" xmlns="http://www.w3.org/2000/svg">
<path d="M26.6667 28V25.3333C26.6667 23.9188 26.1048 22.5623 25.1046 21.5621C24.1044 20.5619 22.7479 20 21.3334 20H10.6667C9.25222 20 7.89566 20.5619 6.89547 21.5621C5.89528 22.5623 5.33337 23.9188 5.33337 25.3333V28" stroke="url(#paint0_linear_286_7050)" stroke-width="2" stroke-linecap="round" stroke-linejoin="round"/>
<path d="M16 14.6667C18.9455 14.6667 21.3333 12.2789 21.3333 9.33333C21.3333 6.38781 18.9455 4 16 4C13.0544 4 10.6666 6.38781 10.6666 9.33333C10.6666 12.2789 13.0544 14.6667 16 14.6667Z" stroke="url(#paint1_linear_286_7050)" stroke-width="2" stroke-linecap="round" stroke-linejoin="round"/>
<defs>
<linearGradient id="paint0_linear_286_7050" x1="5.33337" y1="38.0606" x2="3.96417" y2="20.3424" gradientUnits="userSpaceOnUse">
<stop offset="0.46275" stop-color="#C41973" stop-opacity="0.94"/>
<stop offset="0.847085" stop-color="#F15754"/>
<stop offset="0.989499" stop-color="#FF5A27"/>
</linearGradient>
<linearGradient id="paint1_linear_286_7050" x1="10.6666" y1="28.0808" x2="5.96877" y2="5.28359" gradientUnits="userSpaceOnUse">
<stop offset="0.46275" stop-color="#C41973" stop-opacity="0.94"/>
<stop offset="0.847085" stop-color="#F15754"/>
<stop offset="0.989499" stop-color="#FF5A27"/>
</linearGradient>
</defs>
</svg>
