<svg width="21" height="20" viewBox="0 0 21 20" fill="none" xmlns="http://www.w3.org/2000/svg">
<path d="M12.11 5.83325C12.11 5.37301 12.4973 4.99992 12.975 4.99992H13.84V4.16658C13.84 3.70635 14.2273 3.33325 14.705 3.33325C15.1827 3.33325 15.57 3.70635 15.57 4.16658V4.99992H16.435C16.9127 4.99992 17.3 5.37301 17.3 5.83325C17.3 6.29349 16.9127 6.66658 16.435 6.66658H15.57V7.49992C15.57 7.96015 15.1827 8.33325 14.705 8.33325C14.2273 8.33325 13.84 7.96015 13.84 7.49992V6.66658H12.975C12.4973 6.66658 12.11 6.29349 12.11 5.83325Z" fill="url(#paint0_linear_286_6986)"/>
<path d="M12.11 12.4999C12.11 12.0397 12.4973 11.6666 12.975 11.6666H16.435C16.9127 11.6666 17.3 12.0397 17.3 12.4999C17.3 12.9602 16.9127 13.3333 16.435 13.3333H12.975C12.4973 13.3333 12.11 12.9602 12.11 12.4999Z" fill="url(#paint1_linear_286_6986)"/>
<path d="M12.975 14.9999C12.4973 14.9999 12.11 15.373 12.11 15.8333C12.11 16.2935 12.4973 16.6666 12.975 16.6666H16.435C16.9127 16.6666 17.3 16.2935 17.3 15.8333C17.3 15.373 16.9127 14.9999 16.435 14.9999H12.975Z" fill="url(#paint2_linear_286_6986)"/>
<path d="M4.32499 4.99992C3.84726 4.99992 3.45999 5.37301 3.45999 5.83325C3.45999 6.29349 3.84726 6.66658 4.32499 6.66658H7.78499C8.26272 6.66658 8.64999 6.29349 8.64999 5.83325C8.64999 5.37301 8.26272 4.99992 7.78499 4.99992H4.32499Z" fill="url(#paint3_linear_286_6986)"/>
<path d="M5.12522 12.0923C4.78742 11.7669 4.23973 11.7669 3.90193 12.0923C3.56412 12.4178 3.56412 12.9454 3.90193 13.2708L4.83171 14.1666L3.8954 15.0686C3.5576 15.394 3.5576 15.9217 3.8954 16.2471C4.2332 16.5725 4.78089 16.5725 5.1187 16.2471L6.055 15.3451L6.99735 16.2529C7.33516 16.5784 7.88285 16.5784 8.22065 16.2529C8.55845 15.9275 8.55845 15.3999 8.22065 15.0744L7.2783 14.1666L8.21917 13.2601C8.55697 12.9347 8.55697 12.4071 8.21917 12.0816C7.88136 11.7562 7.33368 11.7562 6.99587 12.0816L6.055 12.9881L5.12522 12.0923Z" fill="url(#paint4_linear_286_6986)"/>
<path fill-rule="evenodd" clip-rule="evenodd" d="M17.3 0.833252C18.7332 0.833252 19.895 1.95254 19.895 3.33325V16.6666C19.895 18.0473 18.7332 19.1666 17.3 19.1666H3.45999C2.02681 19.1666 0.86499 18.0473 0.86499 16.6666V3.33325C0.86499 1.95254 2.02681 0.833252 3.45999 0.833252H17.3ZM17.3 2.49992C17.7777 2.49992 18.165 2.87301 18.165 3.33325V9.16658H11.245V2.49992H17.3ZM18.165 10.8333V16.6666C18.165 17.1268 17.7777 17.4999 17.3 17.4999H11.245V10.8333H18.165ZM3.45999 2.49992H9.51499V9.16658H2.59499V3.33325C2.59499 2.87301 2.98226 2.49992 3.45999 2.49992ZM2.59499 16.6666V10.8333H9.51499V17.4999H3.45999C2.98226 17.4999 2.59499 17.1268 2.59499 16.6666Z" fill="url(#paint5_linear_286_6986)"/>
<defs>
<linearGradient id="paint0_linear_286_6986" x1="71.1007" y1="-3.44453" x2="64.0983" y2="36.2343" gradientUnits="userSpaceOnUse">
<stop offset="0.296931" stop-color="#FE9595"/>
<stop offset="0.5686" stop-color="#FE9595"/>
<stop offset="1" stop-color="#FFDCD8"/>
</linearGradient>
<linearGradient id="paint1_linear_286_6986" x1="71.1007" y1="-3.44453" x2="64.0983" y2="36.2343" gradientUnits="userSpaceOnUse">
<stop offset="0.296931" stop-color="#FE9595"/>
<stop offset="0.5686" stop-color="#FE9595"/>
<stop offset="1" stop-color="#FFDCD8"/>
</linearGradient>
<linearGradient id="paint2_linear_286_6986" x1="71.1007" y1="-3.44453" x2="64.0983" y2="36.2343" gradientUnits="userSpaceOnUse">
<stop offset="0.296931" stop-color="#FE9595"/>
<stop offset="0.5686" stop-color="#FE9595"/>
<stop offset="1" stop-color="#FFDCD8"/>
</linearGradient>
<linearGradient id="paint3_linear_286_6986" x1="71.1007" y1="-3.44453" x2="64.0983" y2="36.2343" gradientUnits="userSpaceOnUse">
<stop offset="0.296931" stop-color="#FE9595"/>
<stop offset="0.5686" stop-color="#FE9595"/>
<stop offset="1" stop-color="#FFDCD8"/>
</linearGradient>
<linearGradient id="paint4_linear_286_6986" x1="71.1007" y1="-3.44453" x2="64.0983" y2="36.2343" gradientUnits="userSpaceOnUse">
<stop offset="0.296931" stop-color="#FE9595"/>
<stop offset="0.5686" stop-color="#FE9595"/>
<stop offset="1" stop-color="#FFDCD8"/>
</linearGradient>
<linearGradient id="paint5_linear_286_6986" x1="71.1007" y1="-3.44453" x2="64.0983" y2="36.2343" gradientUnits="userSpaceOnUse">
<stop offset="0.296931" stop-color="#FE9595"/>
<stop offset="0.5686" stop-color="#FE9595"/>
<stop offset="1" stop-color="#FFDCD8"/>
</linearGradient>
</defs>
</svg>
