<svg width="22" height="20" viewBox="0 0 22 20" fill="none" xmlns="http://www.w3.org/2000/svg">
<path fill-rule="evenodd" clip-rule="evenodd" d="M18.7611 6.35305L18.2226 5.45298C17.7671 4.69138 16.7576 4.42864 15.9659 4.86564V4.86564C15.5891 5.07949 15.1394 5.14017 14.716 5.03428C14.2927 4.92839 13.9304 4.66464 13.7092 4.30118C13.5669 4.07016 13.4904 3.80704 13.4875 3.53841V3.53841C13.5003 3.10773 13.3316 2.69038 13.0199 2.38143C12.7081 2.07249 12.2798 1.89826 11.8325 1.89844H10.7477C10.3095 1.89843 9.8894 2.06664 9.5803 2.36583C9.2712 2.66502 9.0986 3.07053 9.10071 3.49264V3.49264C9.08772 4.36415 8.35057 5.06405 7.44577 5.06396C7.16691 5.06117 6.89376 4.98749 6.65394 4.85038V4.85038C5.86224 4.41339 4.85274 4.67612 4.39721 5.43772L3.81917 6.35305C3.3642 7.1137 3.63323 8.08555 4.42097 8.52697V8.52697C4.93301 8.81174 5.24844 9.33803 5.24844 9.90759C5.24844 10.4771 4.93301 11.0034 4.42097 11.2882V11.2882C3.63423 11.7267 3.3649 12.6961 3.81917 13.4545V13.4545L4.36554 14.3622C4.57897 14.7332 4.93708 15.007 5.36061 15.1229C5.78414 15.2389 6.23819 15.1875 6.62227 14.9801V14.9801C6.99984 14.7678 7.44977 14.7097 7.87206 14.8185C8.29435 14.9274 8.654 15.1942 8.87108 15.5598C9.01341 15.7908 9.08989 16.0539 9.09279 16.3225V16.3225C9.09279 17.203 9.83373 17.9167 10.7477 17.9167H11.8325C12.7434 17.9168 13.4831 17.2076 13.4875 16.3302V16.3302C13.4854 15.9067 13.659 15.5001 13.9699 15.2006C14.2807 14.9012 14.7028 14.7339 15.1424 14.736C15.4206 14.7431 15.6926 14.8165 15.9342 14.9495V14.9495C16.7239 15.3878 17.7327 15.1287 18.191 14.3698V14.3698L18.7611 13.4545C18.9818 13.0896 19.0423 12.655 18.9294 12.247C18.8164 11.839 18.5393 11.4912 18.1593 11.2806V11.2806C17.7793 11.07 17.5022 10.7222 17.3892 10.3142C17.2763 9.90613 17.3368 9.47156 17.5575 9.10668C17.701 8.86532 17.9087 8.66521 18.1593 8.52697V8.52697C18.9423 8.08579 19.2107 7.11962 18.7611 6.36068V6.36068V6.35305Z" stroke="url(#paint0_linear_286_6972)" stroke-width="1.2" stroke-linecap="round" stroke-linejoin="round"/>
<ellipse cx="11.294" cy="9.90749" rx="2.28048" ry="2.1968" stroke="url(#paint1_linear_286_6972)" stroke-width="1.2" stroke-linecap="round" stroke-linejoin="round"/>
<defs>
<linearGradient id="paint0_linear_286_6972" x1="60.3884" y1="-1.83917" x2="53.8105" y2="32.6546" gradientUnits="userSpaceOnUse">
<stop offset="0.296931" stop-color="#FE9595"/>
<stop offset="0.5686" stop-color="#FE9595"/>
<stop offset="1" stop-color="#FFDCD8"/>
</linearGradient>
<linearGradient id="paint1_linear_286_6972" x1="25.8471" y1="6.68552" x2="24.1691" y2="16.1946" gradientUnits="userSpaceOnUse">
<stop offset="0.296931" stop-color="#FE9595"/>
<stop offset="0.5686" stop-color="#FE9595"/>
<stop offset="1" stop-color="#FFDCD8"/>
</linearGradient>
</defs>
</svg>
