<svg width="34" height="34" viewBox="0 0 34 34" fill="none" xmlns="http://www.w3.org/2000/svg">
<path fill-rule="evenodd" clip-rule="evenodd" d="M13.1802 13.1244L3.66667 22.5818L7.56678 26.4576L11.4672 30.3334L20.7233 21.1643C25.8145 16.1211 30.1124 11.756 30.2743 11.4639C30.528 11.0068 30.0627 10.4286 26.9213 7.29979C24.9149 5.3016 23.1431 3.66675 22.9837 3.66675C22.8243 3.66675 18.4129 7.92256 13.1802 13.1244ZM20.2162 19.9653L11.3402 28.7895L8.28351 25.7611L5.22683 22.7328L6.07054 21.8943L6.91425 21.0562L7.63638 21.7303C8.1892 22.2464 8.43691 22.3268 8.69202 22.0733C8.94712 21.8198 8.86616 21.5736 8.34743 21.0248L7.66933 20.3075L8.43464 19.5469L9.19995 18.7864L10.7743 20.3309C12.0555 21.588 12.3978 21.7969 12.6126 21.4522C12.812 21.1329 12.514 20.6635 11.4033 19.545L9.92974 18.0611L10.6951 17.3006L11.4604 16.5401L12.1117 17.1482C12.5631 17.5694 12.8904 17.678 13.1773 17.5019C13.5233 17.2893 13.4779 17.127 12.9032 16.5189L12.2146 15.7905L12.9799 15.03L13.7452 14.2694L15.3196 15.814C16.6008 17.0711 16.9431 17.28 17.1578 16.9353C17.3573 16.616 17.0593 16.1465 15.9485 15.028L14.475 13.5442L15.2403 12.7836L16.0056 12.0231L16.657 12.6312C17.1084 13.0524 17.4357 13.1611 17.7226 12.9849C18.0686 12.7724 18.0231 12.61 17.4484 12.0019L16.7598 11.2736L17.5251 10.513L18.2905 9.75249L19.8648 11.297C21.146 12.5541 21.4883 12.763 21.7031 12.4183C21.9025 12.099 21.6045 11.6296 20.4938 10.5111L19.0202 9.02724L19.7856 8.2667L20.5509 7.50616L21.2142 8.12526C21.7255 8.60265 21.9542 8.66786 22.2141 8.40955C22.4741 8.15123 22.4099 7.92539 21.9335 7.42146L21.3162 6.76848L22.1372 5.91675L22.9584 5.06474L26.025 8.10324L29.092 11.1415L20.2162 19.9653Z" fill="url(#paint0_linear_318_6932)"/>
<defs>
<linearGradient id="paint0_linear_318_6932" x1="102.088" y1="-2.55549" x2="91.54" y2="55.0245" gradientUnits="userSpaceOnUse">
<stop offset="0.296931" stop-color="#FE9595"/>
<stop offset="0.5686" stop-color="#FE9595"/>
<stop offset="1" stop-color="#FFDCD8"/>
</linearGradient>
</defs>
</svg>
