<svg width="34" height="32" viewBox="0 0 34 32" fill="none" xmlns="http://www.w3.org/2000/svg">
<path d="M27.6646 20.9469L27.6646 20.9469C26.5472 20.5595 25.6513 20.1262 25.0913 19.6955C24.8183 19.4856 24.5706 19.2355 24.4517 18.9439C24.3886 18.7891 24.357 18.6102 24.3923 18.4217C24.428 18.2316 24.5241 18.0728 24.6488 17.9479C24.6973 17.8994 24.7279 17.8568 24.7468 17.8235C24.7463 17.8235 24.7458 17.8235 24.7453 17.8235C24.2494 17.8235 23.8585 17.5204 23.7431 17.0913C23.6483 16.7388 23.7563 16.3649 24.0331 16.1001C24.0279 16.0952 24.0228 16.0907 24.0179 16.0866C23.9474 16.1069 23.8708 16.117 23.7896 16.1118C23.6306 16.1017 23.4998 16.036 23.4035 15.9565C23.2263 15.8103 23.1434 15.6031 23.1056 15.447C23.0646 15.2776 23.0562 15.0872 23.089 14.9033C23.1203 14.7281 23.1954 14.5259 23.3515 14.3601C23.3284 14.3466 23.2887 14.3321 23.2253 14.3321C23.105 14.3321 22.9345 14.3164 22.773 14.2198C22.5912 14.111 22.4918 13.9438 22.4465 13.7773C22.406 13.628 22.4059 13.4709 22.4162 13.331C22.427 13.1852 22.4527 13.0183 22.4874 12.8328C22.5231 12.6424 22.5417 12.513 22.547 12.4208C22.5478 12.4056 22.5483 12.3924 22.5484 12.3811C22.5238 12.3726 22.4894 12.362 22.4418 12.3495L22.4416 12.3495C22.3101 12.315 22.0958 12.2584 21.9193 12.1052C21.7206 11.9328 21.6365 11.7044 21.5973 11.4757C21.5597 11.2559 21.554 10.9777 21.5621 10.6354C21.5704 10.2865 21.5945 9.83598 21.6274 9.25777C21.6274 9.25774 21.6274 9.25772 21.6274 9.2577L22.1266 9.28615L27.6646 20.9469ZM27.6646 20.9469L29.5368 21.5958L29.6684 22.2781C29.6243 22.1446 29.5451 22.0374 29.479 21.9658C29.3493 21.8249 29.17 21.7041 28.9788 21.5975C28.5886 21.3801 28.009 21.1473 27.2603 20.8995L27.2602 20.8995M27.6646 20.9469L27.2602 20.8995M14.4832 9.88793L14.4832 9.88792C13.4271 9.68935 12.5605 9.33214 11.9057 8.76842C11.6416 8.54107 11.4178 8.28513 11.2322 8.00166C11.5483 8.57775 11.9678 8.98069 12.6545 9.35907L12.6545 9.3591C12.8837 9.48541 13.0753 9.59698 13.2272 9.69532C13.3712 9.78846 13.5103 9.88898 13.6103 9.9964C13.6595 10.0492 13.729 10.1347 13.77 10.251C13.8175 10.3857 13.8247 10.5629 13.7278 10.7303C13.6443 10.8745 13.52 10.9463 13.4464 10.9804C13.3674 11.017 13.287 11.0376 13.221 11.0507L14.4832 9.88793ZM14.4832 9.88793C14.6996 9.92859 14.906 9.96408 15.0887 9.96975C15.2816 9.97574 15.4897 9.95067 15.6901 9.83656C15.884 9.72611 16.0163 9.56273 16.1196 9.40035C16.2214 9.24034 16.3205 9.03931 16.4278 8.81379L14.4832 9.88793ZM10.6453 6.53572L10.6453 6.53568C10.5798 6.21961 10.512 6.02599 10.4482 5.91426C10.4185 5.8621 10.3971 5.84149 10.3898 5.83541C10.3891 5.83485 10.3886 5.8344 10.3881 5.83404C10.3756 5.83222 10.299 5.82717 10.1115 5.91226C9.91993 5.99916 9.67001 6.15344 9.34176 6.39164L10.6453 6.53572ZM10.6453 6.53572C10.6972 6.78564 10.7655 7.02335 10.8509 7.24848C10.7963 7.15005 10.7421 7.06014 10.6877 6.97988C10.551 6.77805 10.3641 6.56171 10.0891 6.46596C9.78923 6.36154 9.51102 6.44095 9.29255 6.55243C9.08217 6.65977 8.86235 6.8296 8.63505 7.01921L8.63494 7.0193L7.99232 7.55565L7.94854 7.59219M10.6453 6.53572L7.94854 7.59219M9.20236 9.48679L9.20233 9.48676L7.96643 8.30019L7.60515 7.95334C7.48728 8.08236 7.37153 8.21441 7.25802 8.34935C7.26313 8.3457 7.2683 8.3421 7.27354 8.33855L7.27414 8.33814C7.30703 8.31584 7.42887 8.23322 7.59766 8.23105L9.20236 9.48679ZM9.20236 9.48679C9.69881 9.96333 10.217 10.3479 10.7448 10.6231C10.6679 10.5865 10.5907 10.5484 10.5133 10.5088C9.69964 10.093 9.01234 9.59102 8.72844 9.20628L8.7284 9.20623M9.20236 9.48679L8.7284 9.20623M7.94854 7.59219C8.38811 7.14814 8.85411 6.74553 9.34174 6.39165L7.94854 7.59219ZM21.5656 8.46946L21.5656 8.46958C21.5563 8.52976 21.5474 8.58813 21.5389 8.64451C21.5046 8.87009 21.4752 9.06362 21.4439 9.21176C21.4239 9.30644 21.3984 9.40629 21.3612 9.49862C21.3244 9.58995 21.2633 9.70672 21.1534 9.80369C20.8936 10.0329 20.5859 9.97399 20.4384 9.93522C20.3145 9.90266 20.1598 9.84292 20.0046 9.78294C19.9682 9.76889 19.9318 9.75482 19.8957 9.74109L21.5656 8.46946ZM21.5656 8.46946C21.6196 8.11841 21.6457 7.80031 21.6049 7.5544C21.5845 7.43178 21.5379 7.26354 21.411 7.12379C21.2613 6.9588 21.0594 6.89748 20.8695 6.91218L21.5656 8.46946ZM8.7284 9.20623C8.56234 8.98124 8.39027 8.77244 8.2436 8.61556M8.7284 9.20623L8.2436 8.61556M11.4878 10.9349C11.9292 11.0938 12.3194 11.1835 12.5922 11.1835C12.7606 11.1835 13.1691 11.1105 13.7332 10.963C14.2765 10.821 14.9111 10.6243 15.5022 10.4081C16.118 10.183 16.745 9.97792 17.2613 9.82841C17.5192 9.75375 17.7536 9.69172 17.9477 9.64787C18.1265 9.60746 18.3145 9.572 18.4565 9.572C19.7411 9.572 21.0279 10.1934 21.4656 11.2517C21.4656 11.2517 21.4656 11.2517 21.4656 11.2517L21.0036 11.4428L11.4878 10.9349ZM11.4878 10.9349C12.0659 11.1184 12.6487 11.1643 13.2209 11.0507L11.4878 10.9349ZM27.2602 20.8995C26.025 20.4908 25.3638 20.0869 24.8616 19.5141L27.2602 20.8995ZM29.7015 22.4492C29.7055 22.5207 29.6977 22.5971 29.6732 22.6775C29.5865 22.962 29.3417 23.1025 29.1907 23.1699C29.0171 23.2474 28.8035 23.3007 28.5709 23.3399C28.1009 23.4191 27.4458 23.4579 26.6211 23.4596L26.6211 23.4596C26.0825 23.4606 25.4984 23.4883 24.9937 23.5319C24.4756 23.5767 24.0815 23.635 23.9005 23.687L29.7015 22.4492ZM29.7015 22.4492L29.7277 22.5853C29.7277 22.5853 29.7277 22.5854 29.7277 22.5854C29.9558 23.7687 29.8104 24.3529 29.346 24.7613C29.241 24.8537 29.1134 24.9429 28.959 25.0289C29.0114 24.9975 29.061 24.9653 29.1071 24.9327C29.1921 24.8725 29.2802 24.8004 29.3527 24.7177C29.4074 24.6553 29.5348 24.4973 29.5348 24.274C29.5348 23.9607 29.2897 23.8128 29.2325 23.7805C29.1427 23.7296 29.0451 23.7 28.97 23.681C28.8115 23.641 28.608 23.6138 28.3904 23.5941C27.9476 23.5542 27.3595 23.5388 26.7503 23.5446C26.1392 23.5505 25.4946 23.578 24.9364 23.6264C24.3968 23.6732 23.8837 23.7436 23.5706 23.853C23.3439 23.9321 23.1519 23.9592 22.9638 23.9417C22.7739 23.9241 22.5571 23.8581 22.2861 23.7084C21.7253 23.3987 21.0075 22.7754 19.9218 21.6714L19.9217 21.6714C19.1476 20.8843 18.6489 20.3958 18.1987 20.1211C18.0541 20.0329 17.9154 19.967 17.778 19.918C18.1064 20.0076 18.3746 20.1147 18.6136 20.2496C19.0683 20.5061 19.4596 20.8869 19.957 21.5401C20.3924 22.1122 21.1736 22.8669 21.724 23.2418L21.7241 23.2419C22.1054 23.5014 22.4394 23.6947 22.7996 23.7722C23.1768 23.8533 23.5227 23.7955 23.9005 23.687L29.7015 22.4492ZM17.2852 19.8048C17.1024 19.7828 16.9127 19.7779 16.7061 19.7779C16.207 19.7779 15.3121 19.5194 14.3532 19.0954C13.4072 18.6771 12.5001 18.1428 11.9754 17.6673L17.2852 19.8048ZM17.2852 19.8048C17.1054 19.7699 16.9099 19.7378 16.6955 19.7075L16.7656 19.2124L16.6955 19.7075C14.1178 19.3425 12.024 18.025 10.7151 15.9155L11.14 15.6519L10.7151 15.9155C9.40247 13.7998 8.20149 12.4641 7.10261 11.8024L17.2852 19.8048ZM5.50714 10.9976L5.9658 11.2387L6.69179 11.6204L6.69182 11.6204C7.16313 11.8682 7.97144 12.5495 8.52005 13.1311L5.50714 10.9976ZM5.50714 10.9976C5.60383 10.809 5.70428 10.6229 5.80835 10.4397C5.79331 10.4839 5.77559 10.5454 5.76871 10.6138L5.76859 10.615C5.76458 10.6546 5.73774 10.9194 5.96994 11.0987L5.9702 11.0989C6.02559 11.1416 6.19362 11.2469 6.37474 11.3589C6.57341 11.4818 6.83186 11.6395 7.10255 11.8024L5.50714 10.9976ZM19.1261 9.57401C18.7879 9.52661 18.4182 9.4977 18.1023 9.4977C17.8302 9.4977 17.6058 9.4947 17.4311 9.48375C17.2791 9.47422 17.0877 9.45616 16.9339 9.38673C16.8497 9.34874 16.7067 9.26449 16.6268 9.08947C16.5417 8.90291 16.5798 8.72938 16.6208 8.62754C16.6594 8.53158 16.7165 8.45577 16.7566 8.40712C16.8004 8.35405 16.8502 8.30255 16.8982 8.25545C16.8982 8.25545 16.8982 8.25544 16.8982 8.25544L17.2484 8.61229L19.1261 9.57401ZM19.1261 9.57401C19.473 9.6226 19.7498 9.68555 19.8956 9.74106L19.1261 9.57401ZM8.2436 8.61556C8.1714 8.53835 8.09713 8.46484 8.02732 8.40682M8.2436 8.61556L8.02732 8.40682M8.02732 8.40682C7.99322 8.37848 7.94924 8.34461 7.89922 8.31524M8.02732 8.40682L7.89922 8.31524M7.89922 8.31524L7.89848 8.3148M7.89922 8.31524L7.89848 8.3148M7.89848 8.3148C7.86766 8.2967 7.75274 8.2292 7.59823 8.23104L7.89848 8.3148ZM17.5223 9.05085C17.5222 9.05086 17.5228 9.05002 17.5241 9.04829C17.523 9.04998 17.5223 9.05084 17.5223 9.05085ZM22.355 13.5396C22.1689 13.0719 21.6605 12.8641 21.1465 12.9986L24.8615 19.514C24.6168 19.2347 24.3534 18.9907 24.1175 18.8234C24.002 18.7414 23.8738 18.6639 23.7443 18.6149C23.6795 18.5904 23.5957 18.5658 23.5013 18.5597C23.4795 18.5583 23.4554 18.5579 23.4295 18.559C23.4261 18.5287 23.4259 18.4985 23.4292 18.4716C23.4325 18.4447 23.4378 18.4308 23.4401 18.4257C23.7746 18.0857 23.8352 17.613 23.6764 17.246C23.596 17.0603 23.451 16.8843 23.2377 16.7836C23.0472 16.6936 22.8366 16.6803 22.6334 16.7353C22.6266 16.7174 22.6223 16.6989 22.6205 16.6819C22.6195 16.6727 22.6194 16.6651 22.6196 16.6591C23.1024 16.3429 23.1276 15.7814 22.9694 15.4132C22.8865 15.2201 22.7393 15.033 22.5257 14.918C22.3157 14.8049 22.0666 14.7766 21.8187 14.8555C21.8159 14.8352 21.8176 14.8157 21.8221 14.8013C21.8249 14.7927 21.8282 14.787 21.8315 14.783C21.8344 14.7793 21.8405 14.7728 21.8542 14.7651L21.8543 14.765C22.3166 14.5058 22.5402 14.0054 22.355 13.5396ZM22.5957 16.6744L22.5957 16.6743L22.5957 16.6744ZM27.0327 25.6127C27.4391 25.5415 27.8194 25.4621 28.1262 25.3764C28.11 25.3816 28.0936 25.3868 28.0771 25.392C27.4725 25.5822 26.6955 25.7439 25.7079 25.8965C23.5877 26.224 22.8232 26.233 22.0852 26.0346C21.9631 26.0017 21.6559 25.877 21.1662 25.6525C20.6925 25.4353 20.084 25.1419 19.3827 24.7942C17.9806 24.099 16.2181 23.192 14.4419 22.2559C12.6658 21.3198 10.8787 20.356 9.42766 19.5474C7.9635 18.7315 6.87346 18.0911 6.46578 17.7944C5.52171 17.1069 4.9009 16.5139 4.54365 15.9897C4.51141 15.9424 4.48147 15.8959 4.45374 15.8502L5.742 17.022C6.86281 18.0415 9.2679 19.4628 14.2039 22.0631L14.437 21.6207L14.2039 22.0631C16.0985 23.0612 17.9013 23.993 19.2799 24.6904C19.969 25.039 20.5537 25.3298 20.9917 25.5414C21.2104 25.6471 21.3948 25.734 21.5384 25.7989C21.6705 25.8587 21.7966 25.913 21.8822 25.9389L21.8824 25.9389C22.0434 25.9876 22.2494 26.0081 22.4523 26.0178C22.6663 26.0281 22.9191 26.0277 23.1944 26.0192C23.7458 26.0022 24.4107 25.9522 25.0822 25.881C25.7541 25.8098 26.4396 25.7168 27.0327 25.6127ZM4.69012 13.3465L4.16847 15.0201C4.16257 14.9042 4.17237 14.793 4.19525 14.685C4.43157 13.57 4.79907 12.4872 5.27479 11.4716L5.25581 11.5325L4.69014 13.3464L4.69012 13.3465ZM10.4859 15.713C9.95772 14.8797 9.08056 13.7251 8.52013 13.1312L11.9752 17.6672C11.6756 17.3953 10.996 16.5177 10.4859 15.713Z" stroke="url(#paint0_linear_318_6926)"/>
<defs>
<linearGradient id="paint0_linear_318_6926" x1="102.088" y1="0.355465" x2="95.2573" y2="46.9642" gradientUnits="userSpaceOnUse">
<stop offset="0.296931" stop-color="#FE9595"/>
<stop offset="0.5686" stop-color="#FE9595"/>
<stop offset="1" stop-color="#FFDCD8"/>
</linearGradient>
</defs>
</svg>
