<svg width="36" height="44" viewBox="0 0 36 44" fill="none" xmlns="http://www.w3.org/2000/svg">
<g clip-path="url(#clip0_327_6892)">
<g opacity="0.3">
<path opacity="0.3" d="M9.02626 26.9158H9.00439L8.16461 26.6738C8.13579 26.6649 8.11158 26.6449 8.09716 26.6181C8.08273 26.5914 8.07925 26.56 8.08745 26.5306C8.09565 26.5013 8.11488 26.4764 8.14103 26.4612C8.16717 26.4461 8.19814 26.4419 8.2273 26.4496L9.06125 26.6886C9.0877 26.6973 9.11011 26.7155 9.12435 26.7397C9.13859 26.7639 9.14369 26.7925 9.13871 26.8202C9.13373 26.8479 9.11901 26.8728 9.09727 26.8904C9.07553 26.908 9.04823 26.917 9.02043 26.9158H9.02626Z" fill="black"/>
<path opacity="0.3" d="M8.1646 27.5708C8.14083 27.5686 8.1183 27.559 8.10005 27.5435C8.0818 27.5279 8.0687 27.5071 8.06254 27.4837C8.05794 27.4684 8.0565 27.4523 8.05832 27.4364C8.06014 27.4205 8.06517 27.4052 8.0731 27.3913C8.08103 27.3775 8.0917 27.3655 8.10443 27.356C8.11716 27.3465 8.13169 27.3397 8.1471 27.3362L8.98689 27.1208C9.01603 27.1144 9.04647 27.1197 9.07182 27.1356C9.09717 27.1515 9.11544 27.1767 9.12281 27.2059C9.13017 27.2352 9.12605 27.2661 9.1113 27.2924C9.09656 27.3186 9.07234 27.338 9.04375 27.3465L8.2025 27.5619C8.19046 27.567 8.17764 27.57 8.1646 27.5708Z" fill="black"/>
<path opacity="0.3" d="M8.59326 28.3557C8.5656 28.353 8.53979 28.3404 8.52036 28.3203C8.49908 28.2985 8.48715 28.2691 8.48715 28.2385C8.48715 28.2078 8.49908 28.1784 8.52036 28.1566L9.14146 27.5443C9.15203 27.5325 9.16487 27.5231 9.17919 27.5165C9.19351 27.5099 9.20901 27.5064 9.22473 27.5061C9.24045 27.5058 9.25606 27.5088 9.2706 27.5149C9.28514 27.5209 9.2983 27.53 9.30927 27.5414C9.32024 27.5528 9.32878 27.5663 9.33438 27.5812C9.33997 27.596 9.3425 27.6119 9.3418 27.6278C9.34111 27.6437 9.3372 27.6593 9.33033 27.6736C9.32345 27.6879 9.31376 27.7007 9.30183 27.711L8.68366 28.3262C8.67143 28.3372 8.65708 28.3455 8.64152 28.3506C8.62596 28.3557 8.60953 28.3574 8.59326 28.3557Z" fill="black"/>
<path opacity="0.3" d="M9.34697 28.8205H9.3251C9.31021 28.8163 9.29632 28.8091 9.28424 28.7993C9.27216 28.7895 9.26215 28.7774 9.2548 28.7636C9.24745 28.7499 9.24292 28.7347 9.24147 28.7192C9.24003 28.7036 9.24169 28.6879 9.24637 28.6729L9.47673 27.8291C9.48554 27.7999 9.50529 27.7754 9.53174 27.7608C9.55819 27.7462 9.58924 27.7427 9.61823 27.751C9.64722 27.7593 9.67185 27.7787 9.68682 27.8052C9.7018 27.8317 9.70593 27.863 9.69834 27.8925L9.46215 28.7364C9.455 28.7614 9.43978 28.7833 9.4189 28.7985C9.39802 28.8138 9.3727 28.8215 9.34697 28.8205Z" fill="black"/>
</g>
<path d="M32.1233 15.7195L30.034 16.9367L25.459 17.6065C25.459 17.6065 22.1188 12.5284 21.607 11.7302C21.0953 10.9321 20.496 10.4202 19.1095 10.4216L19.372 14.4729C19.4157 14.6042 22.1815 18.052 24.0054 19.9316C24.6498 20.594 25.0449 20.7636 26.0465 20.4804C28.6169 19.759 31.7326 17.6212 31.9833 17.0871C32.3201 16.3893 32.0985 15.7343 32.1233 15.7195Z" fill="#FFEDE5"/>
<path d="M31.2645 13.151C31.5386 12.2452 32.6583 11.5075 33.6978 11.8026C33.8625 11.8486 34.0204 11.9166 34.1673 12.0047C35.1879 12.5948 36 14.0333 36 15.2165C36.0033 15.4163 35.9758 15.6154 35.9183 15.8066C35.6457 16.711 34.5289 17.4545 33.485 17.158C33.3206 17.1113 33.1628 17.0434 33.0155 16.9559C32.0037 16.3657 31.1829 14.9258 31.1829 13.7426C31.1799 13.5424 31.2075 13.3428 31.2645 13.151Z" fill="#455A64"/>
<path d="M33.017 16.947C32.0052 16.3569 31.1843 14.917 31.1843 13.7338C31.1843 12.5506 32.0052 12.0726 33.017 12.6627C34.0288 13.2528 34.8453 14.6913 34.8453 15.8745C34.8453 17.0577 34.0288 17.5372 33.017 16.947Z" fill="#37474F"/>
<path d="M33.017 13.9742C32.6277 13.747 32.3113 13.9314 32.3113 14.3858C32.3246 14.6335 32.3954 14.8746 32.518 15.0894C32.6406 15.3042 32.8115 15.4868 33.017 15.6222C33.4062 15.8494 33.7212 15.6649 33.7212 15.2105C33.7082 14.9629 33.6377 14.7219 33.5153 14.5071C33.3929 14.2923 33.2222 14.1097 33.017 13.9742Z" fill="#455A64"/>
<path d="M32.775 14.6574C32.7796 14.7422 32.804 14.8248 32.846 14.8983C32.8881 14.9719 32.9466 15.0344 33.017 15.0808C33.0401 15.0976 33.0669 15.1085 33.0952 15.1123C33.1234 15.1162 33.1521 15.113 33.1788 15.1029L33.1963 15.0926C33.2172 15.0745 33.2336 15.0518 33.2442 15.0262C33.2548 15.0005 33.2594 14.9728 33.2575 14.9451C33.2529 14.8604 33.2288 14.778 33.187 14.7044C33.1452 14.6309 33.087 14.5683 33.017 14.5216C32.9939 14.5048 32.967 14.494 32.9388 14.4901C32.9106 14.4862 32.8818 14.4895 32.8552 14.4995L32.8377 14.5098C32.8165 14.5277 32.7997 14.5504 32.7888 14.576C32.7779 14.6016 32.7732 14.6295 32.775 14.6574Z" fill="#37474F"/>
<path d="M28.9041 16.919C28.9086 17.0038 28.9327 17.0862 28.9745 17.1598C29.0163 17.2333 29.0746 17.2959 29.1446 17.3425C29.176 17.3629 29.2123 17.3741 29.2496 17.3749C29.2779 17.3743 29.3056 17.3662 29.3298 17.3513L33.1788 15.1029L33.1963 15.0926C33.2172 15.0745 33.2335 15.0518 33.2442 15.0262C33.2548 15.0005 33.2594 14.9728 33.2575 14.9451C33.2529 14.8604 33.2287 14.778 33.187 14.7044C33.1452 14.6309 33.087 14.5683 33.017 14.5216C32.9939 14.5048 32.967 14.494 32.9388 14.4901C32.9106 14.4862 32.8818 14.4895 32.8551 14.4995L32.8376 14.5098L28.9886 16.7582C28.961 16.7743 28.9384 16.7979 28.9234 16.8263C28.9085 16.8548 28.9018 16.8869 28.9041 16.919Z" fill="#FAFAFA"/>
<path d="M25.1265 16.7374C25.3992 15.8331 26.516 15.0851 27.5599 15.3816C27.7247 15.4285 27.8829 15.4965 28.0308 15.5837C29.0426 16.1739 29.8634 17.6138 29.8634 18.797C29.8659 18.9967 29.8384 19.1957 29.7818 19.3871C29.5077 20.2915 28.3924 21.0351 27.3485 20.74C27.1841 20.693 27.0264 20.6251 26.879 20.5379C25.8672 19.9477 25.0463 18.5078 25.0463 17.3261C25.043 17.1269 25.07 16.9283 25.1265 16.7374Z" fill="#455A64"/>
<path d="M26.8775 20.5321C25.8657 19.942 25.0449 18.5021 25.0449 17.3204C25.0449 16.1386 25.8657 15.6577 26.8775 16.2478C27.8893 16.8379 28.7102 18.2779 28.7102 19.4611C28.7102 20.6443 27.8908 21.1238 26.8775 20.5321Z" fill="#37474F"/>
<path d="M26.8775 17.5564C26.4882 17.3278 26.1733 17.5122 26.1733 17.968C26.1865 18.2154 26.2571 18.4561 26.3795 18.6707C26.5018 18.8852 26.6725 19.0676 26.8775 19.2029C27.2668 19.4301 27.5832 19.2457 27.5832 18.7913C27.5697 18.5438 27.4988 18.3031 27.3762 18.0885C27.2536 17.874 27.0827 17.6917 26.8775 17.5564Z" fill="#455A64"/>
<path d="M26.6369 18.2425C26.6414 18.3272 26.6656 18.4096 26.7074 18.4832C26.7491 18.5567 26.8074 18.6193 26.8775 18.6659C26.9006 18.6827 26.9275 18.6936 26.9557 18.6974C26.9839 18.7013 27.0126 18.6981 27.0393 18.688C27.0458 18.6858 27.0517 18.6823 27.0568 18.6777C27.0779 18.6598 27.0946 18.6371 27.1055 18.6115C27.1164 18.5858 27.1212 18.558 27.1195 18.5302C27.1147 18.4453 27.0903 18.3628 27.0483 18.2893C27.0063 18.2158 26.9478 18.1532 26.8775 18.1067C26.8544 18.0904 26.8278 18.08 26.7998 18.0764C26.7719 18.0728 26.7435 18.0761 26.7171 18.0861L26.6996 18.0964C26.6784 18.114 26.6617 18.1364 26.6508 18.1618C26.6399 18.1872 26.6351 18.2148 26.6369 18.2425Z" fill="#37474F"/>
<path d="M26.0538 18.5891C26.058 18.6739 26.0819 18.7565 26.1237 18.8301C26.1656 18.9037 26.224 18.9662 26.2944 19.0125C26.3257 19.033 26.362 19.0442 26.3993 19.045C26.4276 19.0443 26.4553 19.0362 26.4795 19.0214L27.0394 18.6939C27.0458 18.6917 27.0518 18.6881 27.0569 18.6835C27.078 18.6656 27.0946 18.6429 27.1055 18.6173C27.1164 18.5917 27.1212 18.5639 27.1196 18.536C27.1148 18.4512 27.0904 18.3687 27.0483 18.2952C27.0063 18.2216 26.9478 18.1591 26.8775 18.1126C26.8545 18.0962 26.8278 18.0858 26.7999 18.0822C26.7719 18.0786 26.7435 18.082 26.7172 18.0919L26.6997 18.1023L26.1383 18.4283C26.1107 18.4443 26.0881 18.4679 26.0732 18.4964C26.0582 18.5248 26.0515 18.557 26.0538 18.5891Z" fill="#FAFAFA"/>
<path d="M26.0538 18.5892C26.0581 18.6741 26.0821 18.7569 26.1239 18.8307C26.1657 18.9045 26.2241 18.9673 26.2944 19.0141C26.3177 19.0304 26.3446 19.0409 26.3728 19.0444C26.4009 19.048 26.4296 19.0447 26.4562 19.0347L26.4737 19.0244C26.495 19.0066 26.5118 18.984 26.5227 18.9583C26.5336 18.9326 26.5383 18.9047 26.5364 18.8769C26.5315 18.7919 26.507 18.7092 26.465 18.6354C26.423 18.5617 26.3646 18.4989 26.2944 18.452C26.271 18.4356 26.2441 18.4252 26.2159 18.4216C26.1878 18.418 26.1591 18.4213 26.1325 18.4313L26.115 18.4416C26.0941 18.4596 26.0776 18.4824 26.067 18.508C26.0564 18.5336 26.0518 18.5614 26.0538 18.5892Z" fill="#E0E0E0"/>
<path d="M30.7878 18.1257C31.6728 17.4427 32.5213 17.4471 32.3682 15.777C32.2384 15.0394 32.0577 14.9862 31.3476 14.7059C31.0356 14.5835 30.6186 14.4905 30.3693 14.7797C30.342 14.816 30.3117 14.8501 30.2789 14.8815C30.2054 14.9289 30.1211 14.9563 30.034 14.9612C29.8678 14.9694 29.7097 15.0368 29.5879 15.1515C29.5048 15.2474 29.4727 15.3787 29.391 15.4746C29.3126 15.5497 29.2282 15.6183 29.1388 15.6796C29.0747 15.7359 29.0231 15.8052 28.9871 15.8829C28.9512 15.9607 28.9319 16.0453 28.9303 16.1311C28.9362 16.2292 28.9633 16.3249 29.0096 16.4113C29.056 16.4977 29.1205 16.5728 29.1986 16.6312L29.6447 16.3716C29.827 16.2447 30.2031 16.6976 30.0413 16.9366C29.7832 17.3173 30.7878 18.1257 30.7878 18.1257Z" fill="#FFEDE5"/>
<path d="M20.48 21.4836C20.7629 20.3269 20.8445 17.4368 20.8445 17.4368L12.5662 17.6876L13.0167 19.5125C13.0911 19.9239 13.1306 20.341 13.1348 20.7592C13.1348 20.7592 13.9382 22.2655 16.3205 22.5296C17.7843 22.6708 19.2518 22.3017 20.48 21.4836Z" fill="#FFEDE5"/>
<path d="M20.8489 17.4368C20.8591 17.5283 20.8007 18.4031 20.8007 18.4031C19.7423 19.3046 16.3467 19.7604 12.782 18.561L12.0267 15.6104C12.0267 15.6104 14.5898 14.4714 12.8578 10.6503L14.7196 10.5028L18.0248 10.4187H19.1095C20.0014 11.2955 20.7552 12.3056 21.3446 13.4136C21.7776 14.2309 22.3287 15.4289 20.8489 17.4368Z" fill="#455A64"/>
<path d="M16.1645 17.4633C14.673 17.0783 14.2997 16.1355 14.1933 15.4421C14.1933 15.4421 13.9119 17.4633 16.0435 17.934C18.2916 18.4297 19.216 16.6283 19.216 16.6283C19.216 16.6283 17.9636 17.9281 16.1645 17.4633Z" fill="#37474F"/>
<path d="M3.46851 39.9547C3.03112 40.2778 2.02367 40.356 1.13577 39.9341C0.247868 39.5121 -0.122455 38.3112 0.0437528 37.3832C0.244952 36.2517 0.797519 35.6335 0.937484 34.9519C1.07745 34.2703 0.937484 33.3291 1.15035 32.7212C1.23809 32.4876 1.37472 32.2759 1.55088 32.1007C1.72704 31.9255 1.93855 31.7909 2.17092 31.7062C2.31907 31.6483 2.47836 31.6255 2.63657 31.6395C2.79478 31.6536 2.94771 31.7042 3.0836 31.7873L3.34604 31.9437L3.46851 39.9547Z" fill="#263238"/>
<path d="M4.51095 35.6393L3.81988 37.7372C3.81988 37.7372 4.25727 39.2332 4.01087 39.6316C3.64784 40.2217 3.0078 40.325 1.93036 39.9915C0.698383 39.6124 0.408249 38.4837 0.472399 37.6074C0.559877 36.3578 1.70146 35.418 1.57024 34.2142C1.50609 33.624 1.58628 32.9646 1.90558 32.4571C2.26278 31.8905 2.84888 31.7843 3.45685 31.9687C3.9788 32.1281 4.4366 32.46 4.87836 32.7713C5.00519 32.853 5.12003 32.9523 5.21952 33.0664C5.29867 33.1732 5.35795 33.2936 5.39448 33.4219C5.47441 33.6797 5.49828 33.952 5.46446 34.2201C5.43239 34.4709 5.27347 34.6169 5.12621 34.8102L4.51095 35.6393Z" fill="url(#paint0_linear_327_6892)"/>
<path d="M7.48956 34.6465C7.44728 34.6303 5.33615 33.2642 5.10871 33.1609C4.88127 33.0576 4.32141 32.9116 3.78051 34.1789C3.39415 35.0803 3.94963 35.4137 3.94963 35.4137L6.42817 36.9038L7.48956 34.6465Z" fill="#FFEDE5"/>
<path d="M3.8199 37.7372C3.37321 37.5113 2.87868 37.3993 2.37943 37.4112C2.34236 37.4147 2.30501 37.4089 2.27065 37.3944C2.23629 37.3799 2.20597 37.3571 2.18237 37.3279C2.15876 37.2988 2.14258 37.2643 2.13525 37.2273C2.12792 37.1904 2.12966 37.1522 2.14033 37.1161C2.15436 37.0731 2.18069 37.0353 2.21599 37.0074C2.25129 36.9796 2.29397 36.963 2.33861 36.9597C2.67248 36.9331 3.48311 36.9228 4.0211 37.3713C4.16398 37.6634 3.8199 37.7372 3.8199 37.7372Z" fill="url(#paint1_linear_327_6892)"/>
<path d="M4.07356 36.7782C3.63918 36.5293 3.15107 36.392 2.65205 36.3784C2.61447 36.3803 2.57702 36.3727 2.54304 36.3563C2.50907 36.3399 2.47964 36.3153 2.45739 36.2846C2.43514 36.2539 2.42077 36.2181 2.41555 36.1804C2.41034 36.1427 2.41445 36.1043 2.42752 36.0686C2.4436 36.0262 2.47169 35.9896 2.50827 35.9633C2.54485 35.9371 2.58828 35.9224 2.6331 35.921C2.96843 35.9122 3.77906 35.9461 4.29372 36.4212C4.42056 36.7236 4.07356 36.7782 4.07356 36.7782Z" fill="url(#paint2_linear_327_6892)"/>
<path opacity="0.3" d="M3.8199 37.7372C3.37321 37.5113 2.87868 37.3993 2.37943 37.4112C2.34236 37.4147 2.30501 37.4089 2.27065 37.3944C2.23629 37.3799 2.20597 37.3571 2.18237 37.3279C2.15876 37.2988 2.14258 37.2643 2.13525 37.2273C2.12792 37.1904 2.12966 37.1522 2.14033 37.1161C2.15436 37.0731 2.18069 37.0353 2.21599 37.0074C2.25129 36.9796 2.29397 36.963 2.33861 36.9597C2.67248 36.9331 3.48311 36.9228 4.0211 37.3713C4.16398 37.6634 3.8199 37.7372 3.8199 37.7372Z" fill="black"/>
<path opacity="0.3" d="M4.07356 36.7782C3.63918 36.5293 3.15107 36.392 2.65205 36.3784C2.61447 36.3803 2.57702 36.3727 2.54304 36.3563C2.50907 36.3399 2.47964 36.3153 2.45739 36.2846C2.43514 36.2539 2.42077 36.2181 2.41555 36.1804C2.41034 36.1427 2.41445 36.1043 2.42752 36.0686C2.4436 36.0262 2.47169 35.9896 2.50827 35.9633C2.54485 35.9371 2.58828 35.9224 2.6331 35.921C2.96843 35.9122 3.77906 35.9461 4.29372 36.4212C4.42056 36.7236 4.07356 36.7782 4.07356 36.7782Z" fill="black"/>
<path d="M25.5887 40.182L28.3311 39.0814C28.2845 38.3659 28.1095 37.4128 28.2918 35.5406L25.1805 34.9417V38.0929L25.5887 40.182Z" fill="#FFEDE5"/>
<path d="M33.4136 42.619C33.4865 42.8424 33.4729 43.0854 33.3757 43.2991C33.2824 43.4983 32.2545 44.084 30.868 43.9896C29.8398 43.9167 28.8496 43.5667 28.0002 42.976C27.4724 42.622 26.9213 42.5556 26.2361 42.5157C25.5508 42.4759 24.6469 42.1292 24.4967 41.8046C24.3465 41.4801 24.52 40.9194 24.52 40.9194L33.4136 42.619Z" fill="#263238"/>
<path d="M27.8194 38.2404L27.9287 38.2168C27.9881 38.2006 28.0503 38.1976 28.111 38.2079C28.1783 38.229 28.2381 38.2695 28.283 38.3245C28.4187 38.4995 28.5369 38.6878 28.6358 38.8866C28.9274 39.366 29.5369 39.7644 30.2032 40.1258C30.6566 40.3722 31.0998 40.5684 31.5678 40.7765C32.0358 40.9845 32.6773 41.1261 33.0506 41.3813C33.5944 41.7516 33.6658 42.684 33.0506 43.0514C32.5169 43.3701 31.11 43.7138 29.6345 43.2904C28.8298 43.0603 27.9375 42.1913 26.8834 42.1101C26.2127 42.057 24.9428 41.8667 24.5113 41.3518C24.3524 41.1232 24.5652 40.3973 24.7402 39.7718C24.9312 39.0887 25.0011 37.8848 25.2257 37.9453C25.2257 37.9453 25.1644 38.115 25.2519 38.2064C25.3394 38.2979 25.647 38.4809 25.7374 38.5576C25.8886 38.7136 26.0106 38.896 26.0975 39.0961C26.1337 39.1864 26.201 39.2603 26.2871 39.3041C26.4008 39.3469 26.4854 39.2746 26.5787 39.2288C26.7048 39.1717 26.8469 39.1618 26.9796 39.2008C26.9668 39.0653 26.9429 38.9311 26.9082 38.7995C26.8932 38.758 26.8897 38.7131 26.898 38.6697C26.9163 38.6292 26.9463 38.5953 26.984 38.5723C27.2365 38.4038 27.521 38.2907 27.8194 38.2404Z" fill="url(#paint3_linear_327_6892)"/>
<path d="M29.5762 39.757C29.5762 39.757 29.48 39.4958 29.082 39.4221C28.7758 39.3645 28.2364 39.5917 27.901 39.8647C27.8695 39.891 27.8447 39.9248 27.8289 39.9629C27.8132 40.0011 27.8068 40.0426 27.8104 40.0839C27.8139 40.1251 27.8274 40.1648 27.8495 40.1996C27.8717 40.2345 27.9019 40.2633 27.9375 40.2837C27.9832 40.3101 28.0361 40.3213 28.0885 40.3154C28.1409 40.3096 28.1901 40.2871 28.2291 40.2512C28.5982 39.9166 29.0809 39.7395 29.5762 39.757Z" fill="url(#paint4_linear_327_6892)"/>
<path d="M30.5225 40.2924C30.4564 40.1982 30.369 40.1212 30.2675 40.0681C30.166 40.015 30.0535 39.9872 29.9393 39.9871C29.9393 39.9871 29.1418 40.0107 28.6475 40.4754C28.6174 40.501 28.5938 40.5336 28.5788 40.5704C28.5638 40.6072 28.5577 40.6471 28.5611 40.6867C28.5646 40.7264 28.5774 40.7646 28.5985 40.7982C28.6196 40.8318 28.6484 40.8597 28.6825 40.8796C28.7258 40.904 28.7755 40.9139 28.8247 40.9081C28.8739 40.9023 28.92 40.881 28.9566 40.8472C29.1601 40.6423 29.4064 40.4861 29.6774 40.3902C29.9483 40.2942 30.2371 40.2608 30.5225 40.2924Z" fill="url(#paint5_linear_327_6892)"/>
<path d="M31.5678 40.7764C31.4917 40.6889 31.3979 40.619 31.2927 40.5714C31.1876 40.5238 31.0735 40.4996 30.9583 40.5005C30.9583 40.5005 30.2148 40.5285 29.722 40.9933C29.6915 41.0186 29.6676 41.051 29.6522 41.0878C29.6369 41.1246 29.6306 41.1645 29.6339 41.2043C29.6372 41.2441 29.65 41.2824 29.6712 41.3161C29.6924 41.3497 29.7213 41.3777 29.7555 41.3975C29.7991 41.4218 29.8491 41.4317 29.8984 41.4259C29.9478 41.42 29.9942 41.3988 30.0311 41.3651C30.2243 41.1527 30.4638 40.9889 30.7306 40.8867C30.9974 40.7845 31.284 40.7467 31.5678 40.7764Z" fill="url(#paint6_linear_327_6892)"/>
<path opacity="0.3" d="M29.5762 39.757C29.5762 39.757 29.48 39.4958 29.082 39.4221C28.7758 39.3645 28.2364 39.5917 27.901 39.8647C27.8695 39.891 27.8447 39.9248 27.8289 39.9629C27.8132 40.0011 27.8068 40.0426 27.8104 40.0839C27.8139 40.1251 27.8274 40.1648 27.8495 40.1996C27.8717 40.2345 27.9019 40.2633 27.9375 40.2837C27.9832 40.3101 28.0361 40.3213 28.0885 40.3154C28.1409 40.3096 28.1901 40.2871 28.2291 40.2512C28.5982 39.9166 29.0809 39.7395 29.5762 39.757Z" fill="black"/>
<path opacity="0.3" d="M30.5225 40.2924C30.4564 40.1982 30.369 40.1212 30.2675 40.0681C30.166 40.015 30.0535 39.9872 29.9393 39.9871C29.9393 39.9871 29.1418 40.0107 28.6475 40.4754C28.6174 40.501 28.5938 40.5336 28.5788 40.5704C28.5638 40.6072 28.5577 40.6471 28.5611 40.6867C28.5646 40.7264 28.5774 40.7646 28.5985 40.7982C28.6196 40.8318 28.6484 40.8597 28.6825 40.8796C28.7258 40.904 28.7755 40.9139 28.8247 40.9081C28.8739 40.9023 28.92 40.881 28.9566 40.8472C29.1601 40.6423 29.4064 40.4861 29.6774 40.3902C29.9483 40.2942 30.2371 40.2608 30.5225 40.2924Z" fill="black"/>
<path opacity="0.3" d="M31.5678 40.7764C31.4917 40.6889 31.3979 40.619 31.2927 40.5714C31.1876 40.5238 31.0735 40.4996 30.9583 40.5005C30.9583 40.5005 30.2148 40.5285 29.722 40.9933C29.6915 41.0186 29.6676 41.051 29.6522 41.0878C29.6369 41.1246 29.6306 41.1645 29.6339 41.2043C29.6372 41.2441 29.65 41.2824 29.6712 41.3161C29.6924 41.3497 29.7213 41.3777 29.7555 41.3975C29.7991 41.4218 29.8491 41.4317 29.8984 41.4259C29.9478 41.42 29.9942 41.3988 30.0311 41.3651C30.2243 41.1527 30.4638 40.9889 30.7306 40.8867C30.9974 40.7845 31.284 40.7467 31.5678 40.7764Z" fill="black"/>
<path d="M27.4636 24.3561C25.3788 23.8825 20.3998 22.8292 20.3998 22.8292L20.48 21.4837C18.6794 22.4279 14.8843 22.1608 13.1348 20.7593L12.8592 22.1859C12.1959 22.9895 11.6214 23.8642 11.1461 24.7943C10.7467 25.5954 10.0789 26.845 10.7437 29.7558C11.1345 31.4657 11.655 35.9669 11.655 35.9669L6.5521 34.0637C6.5521 34.0637 6.11471 34.139 5.74438 35.1068C5.52569 35.6792 5.45279 36.2295 5.6744 36.5142C7.54059 38.0058 10.5644 40.4415 13.6203 41.8077C15.6614 42.5985 16.7462 40.862 16.8453 40.2188C17.2288 37.755 17.6705 29.8384 17.6705 29.8384L24.4938 29.6186C24.2678 30.9257 25.1863 36.0333 25.1863 36.0333C25.1863 36.0333 26.8659 36.7709 28.2568 36.0156C28.2568 36.0156 29.187 30.1379 29.2773 28.1772C29.3692 25.9908 29.48 24.8149 27.4636 24.3561Z" fill="url(#paint7_linear_327_6892)"/>
<path opacity="0.15" d="M24.4938 29.6185C24.4938 29.2659 24.7256 28.034 25.5144 27.3774C25.5144 27.3774 24.4326 27.5737 23.9369 29.6362L24.4938 29.6185Z" fill="black"/>
<path opacity="0.15" d="M11.655 35.9669C11.655 35.9669 11.8007 37.9099 12.1682 38.8571C12.1682 38.8571 11.2482 37.1752 11.1476 35.7751L11.655 35.9669Z" fill="black"/>
<path opacity="0.15" d="M20.3984 22.8291L20.4785 21.4851C18.678 22.4279 14.8843 22.1608 13.1362 20.7607L12.8607 22.1859C12.8753 22.1992 13.9979 23.3735 16.9167 23.5255C19.8356 23.6775 20.3984 22.8291 20.3984 22.8291Z" fill="black"/>
<path opacity="0.15" d="M17.6763 29.8384C17.6522 29.1081 17.4815 28.3905 17.1747 27.729C16.868 27.0676 16.4315 26.4762 15.8918 25.9907C15.8918 25.9907 17.4606 26.7284 17.9854 29.0638C17.9854 29.0638 19.1518 28.5135 19.7612 26.8641C19.7612 26.8641 19.5746 28.5135 18.6357 29.4518L21.4656 29.7159L17.6763 29.8384Z" fill="black"/>
<path d="M16.7666 5.90031e-06C16.1676 -0.000963636 15.5743 0.117561 15.0206 0.348802C14.4669 0.580043 13.9636 0.919465 13.5397 1.34766C13.1157 1.77585 12.7793 2.28441 12.5497 2.84425C12.3201 3.4041 12.2019 4.00425 12.2017 4.61039C12.2017 5.21665 12.3198 5.81696 12.5493 6.37697C12.7788 6.93699 13.1152 7.44573 13.5392 7.87407C13.9631 8.30242 14.4664 8.64197 15.0202 8.87331C15.574 9.10464 16.1674 9.22321 16.7666 9.22224C17.9739 9.22029 19.1311 8.73349 19.984 7.86877C20.837 7.00405 21.3158 5.83211 21.3154 4.61039C21.3154 3.38891 20.8364 2.21736 19.9835 1.35296C19.1307 0.488558 17.9737 0.00196026 16.7666 5.90031e-06Z" fill="#263238"/>
<path d="M12.0063 2.80311C12.1711 2.79547 12.3362 2.80486 12.4991 2.83114C12.5543 2.83481 12.6063 2.85898 12.6449 2.899C12.6674 2.93211 12.68 2.971 12.6814 3.01113C12.719 3.26726 12.6955 3.52879 12.6129 3.77387C12.5487 3.945 12.349 4.03205 12.2221 4.15598C11.7293 4.63988 11.69 5.44098 11.8839 6.10635C12.0778 6.77172 12.4671 7.3648 12.7193 8.00804C12.9715 8.65128 13.1057 9.42583 12.7484 10.0735C12.6099 10.3213 12.3577 10.5161 12.3883 10.8112C12.4233 11.1726 12.7353 11.5178 12.8695 11.8439C13.0167 12.2301 13.0668 12.6474 13.0153 13.0581C12.9783 13.5687 12.7909 14.0564 12.4773 14.4582C12.2375 14.7409 11.9279 14.9543 11.5802 15.0766C11.2324 15.199 10.8587 15.2258 10.4974 15.1545C10.345 15.1276 10.2008 15.0655 10.076 14.973C9.86168 14.799 9.77566 14.5142 9.65903 14.2619C9.28433 13.4461 8.49266 12.853 8.25209 11.987C7.99112 11.0649 8.42559 10.1059 8.9592 9.32255C9.20852 8.95667 9.48699 8.59817 9.60946 8.17033C9.77421 7.59348 9.62987 6.97974 9.59196 6.37929C9.55579 5.79277 9.62243 5.20439 9.78879 4.64136C9.90834 4.23417 10.0935 3.76502 10.407 3.4729C10.8469 3.06819 11.4125 2.83133 12.0063 2.80311Z" fill="#263238"/>
<path d="M19.6154 2.10962C20.114 2.41206 20.7278 3.68821 20.6564 6.35855C20.5952 8.62169 19.8676 9.17789 19.5032 9.3387C19.1387 9.49951 18.4359 9.39624 17.7536 9.27821V10.637C17.7536 10.637 18.6925 11.7494 18.6284 12.3734C18.5642 12.9975 17.2637 13.1377 16.3831 12.521C15.5025 11.9043 14.7633 10.7196 14.7633 10.7196L14.7925 7.59487C14.7925 7.59487 14.3857 7.99321 13.7048 7.38832C13.1464 6.88819 12.9598 6.04873 13.4001 5.60613C13.8404 5.16354 14.6496 5.28304 14.9587 5.92628C14.9587 5.92628 16.0463 5.97054 17.4999 5.17091C18.0654 4.86468 18.5516 4.42793 18.9192 3.89606C19.2867 3.36419 19.5252 2.75218 19.6154 2.10962Z" fill="#FFEDE5"/>
<path d="M18.1604 5.78033C18.1607 5.83626 18.1446 5.89103 18.1143 5.9378C18.084 5.98456 18.0408 6.02126 17.99 6.0433C17.9392 6.06535 17.8831 6.07177 17.8287 6.06176C17.7743 6.05175 17.724 6.02576 17.6842 5.98703C17.6443 5.94829 17.6166 5.89853 17.6045 5.84396C17.5924 5.78939 17.5964 5.73242 17.6161 5.68016C17.6358 5.6279 17.6703 5.58266 17.7152 5.55011C17.7602 5.51755 17.8136 5.4991 17.8688 5.49707C17.9442 5.49701 18.0166 5.52647 18.071 5.57928C18.1254 5.63209 18.1574 5.70414 18.1604 5.78033Z" fill="#263238"/>
<g style="mix-blend-mode:multiply" opacity="0.5">
<g style="mix-blend-mode:multiply" opacity="0.5">
<path d="M18.2245 7.69971L18.8762 7.91215C18.8644 7.95642 18.8438 7.99782 18.8158 8.03385C18.7877 8.06988 18.7528 8.09982 18.713 8.12186C18.6733 8.1439 18.6295 8.15759 18.5844 8.16212C18.5393 8.16665 18.4938 8.16192 18.4505 8.14821C18.3626 8.11785 18.2899 8.05404 18.2477 7.97031C18.2055 7.88659 18.1972 7.78952 18.2245 7.69971Z" fill="#F28F8F"/>
</g>
</g>
<path d="M20.4713 4.91571L19.9041 4.51443C19.9279 4.47557 19.9592 4.44203 19.9963 4.4159C20.0333 4.38976 20.0753 4.37157 20.1195 4.36245C20.1638 4.35333 20.2094 4.35347 20.2536 4.36286C20.2978 4.37225 20.3396 4.39069 20.3765 4.41706C20.4518 4.47253 20.5035 4.55488 20.5211 4.64746C20.5387 4.74004 20.5209 4.83593 20.4713 4.91571Z" fill="#263238"/>
<path d="M20.3371 5.58257C20.3376 5.63856 20.3219 5.69347 20.2917 5.74042C20.2616 5.78738 20.2184 5.82431 20.1677 5.84658C20.1169 5.86885 20.0608 5.87548 20.0063 5.86564C19.9518 5.8558 19.9014 5.82992 19.8614 5.79125C19.8214 5.75258 19.7935 5.70283 19.7813 5.64822C19.7691 5.59361 19.773 5.53656 19.7927 5.48422C19.8123 5.43187 19.8468 5.38656 19.8918 5.35393C19.9367 5.3213 19.9902 5.30281 20.0455 5.30078C20.1206 5.3007 20.1929 5.32996 20.2472 5.38246C20.3015 5.43495 20.3337 5.50664 20.3371 5.58257Z" fill="#263238"/>
<g style="mix-blend-mode:multiply" opacity="0.5">
<g style="mix-blend-mode:multiply" opacity="0.5">
<path d="M19.0104 5.41455L19.0483 7.12887L19.9406 6.85299L19.0104 5.41455Z" fill="#F28F8F"/>
</g>
</g>
<g style="mix-blend-mode:multiply" opacity="0.5">
<g style="mix-blend-mode:multiply" opacity="0.5">
<path d="M17.7551 9.27827C17.0349 9.1809 15.5565 8.7442 15.329 8.15112C15.4207 8.45082 15.6008 8.71494 15.8452 8.90796C16.2855 9.2945 17.7522 9.73709 17.7522 9.73709L17.7551 9.27827Z" fill="#F28F8F"/>
</g>
</g>
<path d="M12.8578 10.6519C11.4465 10.7537 10.8647 10.9351 10.0789 12.6996C9.37178 14.2856 7.68054 18.3899 7.25773 19.3046C6.83493 20.2193 6.75474 20.5867 7.11194 21.5442C7.40353 22.3246 9.78584 26.8081 10.0468 27.4617C10.3078 28.1152 10.423 28.7762 10.8676 29.5375C11.3123 30.2987 12.0151 31.0423 12.5705 31.2178C13.3943 31.479 14.4659 31.1161 14.4965 30.613C14.5271 30.1099 13.2879 29.2704 12.9511 28.1536C13.1752 28.3026 13.4112 28.4324 13.6567 28.5416C13.9906 28.6803 14.3638 28.6493 14.4746 28.4575C14.5855 28.2657 14.2516 28.1492 13.9542 27.8497C13.7763 27.6712 13.4614 27.2699 13.059 26.9158C12.7863 26.6768 12.3402 26.606 12.139 26.3434C12.0311 26.2032 11.5412 24.989 11.1724 23.9076C10.7175 22.5666 10.1183 20.7814 10.1183 20.7814L12.5705 15.6178C12.5705 15.6178 14.4936 13.6763 12.8578 10.6519Z" fill="#FFEDE5"/>
<path d="M10.0425 27.4617C10.0425 27.4617 10.6067 26.3065 12.1347 26.3434L11.7308 25.4346C11.7308 25.4346 10.2393 25.5408 9.61093 26.5632L10.0425 27.4617Z" fill="#37474F"/>
<path d="M9.87771 26.4806L10.2057 26.9512C10.2295 26.9855 10.2598 27.0145 10.2949 27.0366C10.33 27.0587 10.3691 27.0734 10.4099 27.0799C10.4507 27.0864 10.4924 27.0845 10.5325 27.0743C10.5726 27.0641 10.6102 27.0458 10.6431 27.0206L11.2263 26.578C11.2941 26.5255 11.3395 26.4488 11.3534 26.3635C11.3672 26.2782 11.3483 26.1909 11.3007 26.1192L10.996 25.6648C10.973 25.6297 10.9433 25.5997 10.9086 25.5767C10.8738 25.5536 10.8348 25.5379 10.7939 25.5306C10.7529 25.5233 10.711 25.5245 10.6705 25.5341C10.6301 25.5437 10.592 25.5616 10.5586 25.5866L9.9404 26.0292C9.87309 26.0807 9.8287 26.1572 9.81695 26.2418C9.8052 26.3264 9.82705 26.4123 9.87771 26.4806Z" fill="#263238"/>
<path d="M9.76836 26.4688L10.0993 26.9394C10.1232 26.9734 10.1536 27.0023 10.1886 27.0243C10.2237 27.0463 10.2628 27.0609 10.3036 27.0674C10.3443 27.0739 10.386 27.072 10.426 27.0619C10.466 27.0519 10.5037 27.0338 10.5367 27.0087L11.1199 26.5661C11.1876 26.5136 11.2331 26.437 11.2472 26.3518C11.2613 26.2667 11.2429 26.1793 11.1957 26.1073L10.891 25.6529C10.8679 25.618 10.8381 25.5882 10.8034 25.5652C10.7686 25.5423 10.7296 25.5267 10.6888 25.5194C10.6479 25.5121 10.606 25.5132 10.5656 25.5227C10.5252 25.5322 10.4871 25.5499 10.4536 25.5747L9.83542 26.0247C9.76919 26.0752 9.7251 26.1499 9.71257 26.2329C9.70004 26.3159 9.72006 26.4005 9.76836 26.4688Z" fill="#455A64"/>
<path d="M11.1359 26.3138C11.1286 26.3721 11.0987 26.4252 11.0528 26.4613L10.4696 26.9039C10.4494 26.9203 10.4259 26.932 10.4007 26.9384C10.3756 26.9448 10.3493 26.9456 10.3239 26.9408C10.2989 26.9369 10.2749 26.928 10.2533 26.9145C10.2318 26.9011 10.2132 26.8834 10.1985 26.8626L9.86605 26.3905C9.838 26.3513 9.82552 26.3029 9.83106 26.2548C9.83304 26.2256 9.84139 26.1972 9.85551 26.1717C9.86963 26.1462 9.88916 26.1242 9.91271 26.1072L10.5309 25.6646C10.5516 25.6491 10.5752 25.6381 10.6003 25.6322C10.6254 25.6264 10.6514 25.6259 10.6767 25.6307C10.7016 25.6352 10.7255 25.6446 10.7468 25.6586C10.7681 25.6725 10.7864 25.6906 10.8006 25.7119L11.1053 26.1663C11.1339 26.2097 11.1463 26.262 11.1403 26.3138H11.1359Z" fill="url(#paint8_linear_327_6892)"/>
</g>
<defs>
<linearGradient id="paint0_linear_327_6892" x1="18.9745" y1="29.9505" x2="13.8385" y2="46.9044" gradientUnits="userSpaceOnUse">
<stop offset="0.296931" stop-color="#FE9595"/>
<stop offset="0.5686" stop-color="#FE9595"/>
<stop offset="1" stop-color="#FFDCD8"/>
</linearGradient>
<linearGradient id="paint1_linear_327_6892" x1="4.05583" y1="37.7372" x2="1.56385" y2="37.2661" gradientUnits="userSpaceOnUse">
<stop stop-color="#92A3FD"/>
<stop offset="1" stop-color="#9DCEFF"/>
</linearGradient>
<linearGradient id="paint2_linear_327_6892" x1="4.3216" y1="36.7782" x2="1.83664" y2="36.3507" gradientUnits="userSpaceOnUse">
<stop stop-color="#92A3FD"/>
<stop offset="1" stop-color="#9DCEFF"/>
</linearGradient>
<linearGradient id="paint3_linear_327_6892" x1="57.7841" y1="36.6494" x2="56.4098" y2="48.8682" gradientUnits="userSpaceOnUse">
<stop offset="0.296931" stop-color="#FE9595"/>
<stop offset="0.5686" stop-color="#FE9595"/>
<stop offset="1" stop-color="#FFDCD8"/>
</linearGradient>
<linearGradient id="paint4_linear_327_6892" x1="29.5762" y1="40.3169" x2="27.2603" y2="39.9666" gradientUnits="userSpaceOnUse">
<stop stop-color="#92A3FD"/>
<stop offset="1" stop-color="#9DCEFF"/>
</linearGradient>
<linearGradient id="paint5_linear_327_6892" x1="30.5225" y1="40.9097" x2="27.9609" y2="40.4882" gradientUnits="userSpaceOnUse">
<stop stop-color="#92A3FD"/>
<stop offset="1" stop-color="#9DCEFF"/>
</linearGradient>
<linearGradient id="paint6_linear_327_6892" x1="31.5678" y1="41.4275" x2="29.0397" y2="41.0192" gradientUnits="userSpaceOnUse">
<stop stop-color="#92A3FD"/>
<stop offset="1" stop-color="#9DCEFF"/>
</linearGradient>
<linearGradient id="paint7_linear_327_6892" x1="93.2991" y1="15.8007" x2="85.7375" y2="61.9885" gradientUnits="userSpaceOnUse">
<stop offset="0.296931" stop-color="#FE9595"/>
<stop offset="0.5686" stop-color="#FE9595"/>
<stop offset="1" stop-color="#FFDCD8"/>
</linearGradient>
<linearGradient id="paint8_linear_327_6892" x1="11.1418" y1="26.9439" x2="9.39307" y2="26.809" gradientUnits="userSpaceOnUse">
<stop stop-color="#92A3FD"/>
<stop offset="1" stop-color="#9DCEFF"/>
</linearGradient>
<clipPath id="clip0_327_6892">
<rect width="36" height="44" fill="white"/>
</clipPath>
</defs>
</svg>
